<svg width="222" height="222" viewBox="0 0 222 222" fill="none" xmlns="http://www.w3.org/2000/svg">
<circle cx="111" cy="111" r="110" stroke="white" stroke-width="2"/>
<path d="M76.799 147.916C84.6781 153.339 99.1132 158.013 99.1132 158.013L121.932 143.149C121.932 143.149 106.517 145.962 96.7508 144.67C89.9122 143.765 85.2409 143.693 79.5491 139.796C77.1166 138.13 73.607 135.406 71.0925 131.278C68.8603 127.614 68.4701 125.201 67.3451 121.061C66.4862 117.9 66.5007 115.736 66.3633 112.463C66.1623 107.677 66.8322 104.82 67.7272 100.114C68.6312 95.3601 70.0724 92.9134 70.8761 88.1416C71.7307 83.0671 72.5584 75.756 72.5584 75.756L65.832 91.4273L60.8288 105.805C60.8288 105.805 58.8375 112.846 59.261 118.629C59.7254 124.971 60.5498 129.532 63.8977 134.938C67.5293 140.802 69.5208 142.907 76.799 147.916Z" stroke="white"/>
<path d="M61.7726 69.4393C65.4229 70.7545 70.3459 74.4602 70.3459 74.4602L63.8772 77.1344L63.1731 76.0535L58.3692 79.1828L58.2402 76.3588C58.2402 76.3588 56.1986 79.1989 54.3806 80.4124C52.4719 81.6866 48.8726 82.4608 48.8726 82.4608L52.5251 75.4631L43.7745 79.6236L44.8046 76.2157L30.73 80.081C30.73 80.081 34.1741 74.3358 37.5359 71.8845C40.2799 69.8837 42.1375 69.0383 45.4458 68.2716C48.1805 67.6378 49.8261 67.7087 52.6099 67.8286L52.6859 67.8319C56.2862 67.9869 58.3823 68.2178 61.7726 69.4393Z" stroke="white"/>
<path d="M58.0905 82.9565L69.5031 78.9435L62.7865 86.2266L63.4102 91.1231L60.4881 89.2633C60.4881 89.2633 60.3912 91.7601 60.0474 93.3136C59.4268 96.1179 57.0737 100.04 57.0737 100.04L53.8992 92.0157L50.0209 101.555L46.8135 96.6313L39.3521 110.387C39.3521 110.387 37.9309 106.594 37.7897 104.049C37.6879 102.216 37.6614 101.129 38.1576 99.3617C38.875 96.806 40.0822 95.6552 41.7572 93.5959C44.0748 90.7464 45.8051 89.47 48.8595 87.43C52.1907 85.2051 58.0905 82.9565 58.0905 82.9565Z" stroke="white"/>
<path d="M64.3045 59.4083L67.9428 68.6702L62.0623 64.6321L57.8809 65.3031L58.78 63.0069C56.7725 62.376 52.5675 61.0325 51.8076 60.7064C51.0478 60.3803 54.3661 59.382 56.1202 58.9236L50.5052 56.081L53.868 53.8905L46.5937 50.0761C46.5937 50.0761 48.8917 47.7934 50.7971 47.338C52.6932 46.8848 53.937 47.1793 55.7608 47.8679C58.3649 48.8511 59.3968 50.3965 61.0772 52.6156C62.8501 54.957 64.3045 59.4083 64.3045 59.4083Z" stroke="white"/>
<path d="M71.7517 61.9127L72.5682 67.3678L76.1843 60.0517L80.726 59.1459L76.4047 58.0265L78.2226 55.3028L82.3588 51.4111L75.7028 53.0099L80.1684 48.0484L80.6653 46.1852L76.4839 46.8563L77.665 44.2053L81.6304 37.688C81.6304 37.688 78.6722 39.2656 77.0667 40.6607C75.3952 42.1131 74.4245 43.011 73.3635 44.9546C72.3917 46.7348 71.8001 49.9073 71.8001 49.9073L71.3792 55.8262L71.7517 61.9127Z" stroke="white"/>
<path d="M81.5425 64.601L74.5438 72.2389L80.5487 68.3274L83.6382 69.3939L83.5765 67.7236L85.3196 68.2987L92.0793 68.1719L90.724 64.7783L97.9641 64.3386L95.6954 60.8558L101.667 60.0448L107.932 57.8455L104.583 55.0667C104.583 55.0667 101.444 54.1828 99.3842 54.1765C97.0247 54.1693 95.6626 54.4898 93.4487 55.3059C90.4551 56.4095 89.0896 57.7659 86.6031 59.7651C84.4728 61.4779 81.5425 64.601 81.5425 64.601Z" stroke="white"/>
<path d="M86.3995 78.885L76.3994 77.1883L82.66 82.8604L83.5966 88.2373L84.694 85.9829L90.0754 95.8199L91.2807 87.1662L96.5221 95.2128L98.3621 90.422L101.693 98.6867L104.153 95.3735L107.423 101.968L108.24 96.1327C108.24 96.1327 108.421 91.5008 107.163 88.9653C105.895 86.4086 104.427 85.3246 102.051 83.7427C99.5162 82.0549 97.6686 81.8822 94.7657 80.9618C91.5567 79.9444 86.3995 78.885 86.3995 78.885Z" stroke="white"/>
<path d="M76.2322 126.05C75.5285 134.916 78.4759 148.713 78.4759 148.713L101.055 160.178C101.055 160.178 91.6227 149.073 88.1225 140.607C85.6716 134.68 83.558 130.884 84.05 124.489C84.2603 121.756 84.8229 117.662 86.9778 113.719C88.8908 110.217 90.6519 108.782 93.4632 105.951C95.6096 103.789 97.3584 102.795 99.9302 101.163C103.691 98.7755 106.303 97.9868 110.509 96.5194C114.757 95.0372 117.398 95.0602 121.614 93.4888C126.098 91.8177 132.37 89.0851 132.37 89.0851L116.623 90.9545L102.719 93.6101C102.719 93.6101 96.1226 95.2804 91.6628 98.31C86.7719 101.632 83.4818 104.417 80.6851 109.626C77.6513 115.277 76.8822 117.86 76.2322 126.05Z" stroke="white"/>
<path d="M132.442 77.4627C133.08 81.0137 132.385 86.701 132.385 86.701L127.224 82.7351L127.767 81.6656L123.014 79.252L125.228 77.8352C125.228 77.8352 121.992 77.5115 120.169 76.6117C118.256 75.667 115.959 73.1286 115.959 73.1286L123.292 72.8164L115.873 67.704L119.096 66.9492L109.44 57.4122C109.44 57.4122 115.668 57.5145 119.205 59.082C122.092 60.3615 123.636 61.4643 125.792 63.772C127.574 65.6796 128.282 67.0377 129.479 69.3352L129.512 69.3979C131.061 72.3693 131.85 74.1645 132.442 77.4627Z" stroke="white"/>
<path d="M119.845 80.782L128.383 88.1067L119.395 86.084L115.742 88.8628L115.881 85.645C115.881 85.645 113.825 86.7279 112.415 87.1733C109.868 87.9773 105.615 87.906 105.615 87.906L110.601 81.6188L101.116 82.9309L103.59 78.0587L89.0441 78.4454C89.0441 78.4454 91.4374 75.5377 93.4213 74.2406C94.8503 73.3063 95.7126 72.78 97.3669 72.3577C99.7585 71.7472 101.247 72.1843 103.684 72.5757C107.056 73.1172 108.888 73.9171 111.951 75.4283C115.291 77.0765 119.845 80.782 119.845 80.782Z" stroke="white"/>
<path d="M141.697 74.8378L135.93 82.0738L136.448 75.461L133.964 72.4057L136.231 72.0621C135.806 70.1522 134.932 66.1413 134.842 65.3778C134.751 64.6143 137.098 66.8223 138.282 68.0217L137.961 62.1785L141.288 63.8681L140.978 56.2368C140.978 56.2368 143.885 57.026 145.137 58.3487C146.384 59.6648 146.725 60.8034 147.018 62.5923C147.437 65.1464 146.673 66.6959 145.667 69.0808C144.606 71.5971 141.697 74.8378 141.697 74.8378Z" stroke="white"/>
<path d="M143.143 81.9993L139.13 85.1931L146.703 84.7036L149.543 87.9398L148.436 83.9395L151.474 84.1371L156.531 85.6586L152.149 81.0419L158.221 82.3312L159.952 81.8651L157.468 78.8098L160.152 78.5285L167.244 78.6916C167.244 78.6916 164.598 77.0429 162.728 76.3987C160.781 75.7279 159.607 75.3637 157.549 75.4129C155.663 75.458 152.833 76.4565 152.833 76.4565L147.871 78.8696L143.143 81.9993Z" stroke="white"/>
<path d="M145.53 91.1336L136.126 89.0488L142.067 92.0658L142.645 95.0496L143.961 94.2233L144.309 95.8944L147.553 101.279L149.656 98.6097L153.376 104.236L155.126 100.789L158.556 105.221L163.24 109.244L163.92 105.255C163.92 105.255 163.173 102.316 162.22 100.655C161.129 98.7511 160.237 97.8033 158.551 96.3999C156.27 94.5023 154.543 94.0333 151.777 92.9605C149.408 92.0413 145.53 91.1336 145.53 91.1336Z" stroke="white"/>
<path d="M136.286 101.686L133.003 92.8441L131.346 100.523L127.451 103.777L129.777 103.613L124.357 112.52L131.886 109.467L127.844 117.429L132.557 116.683L127.45 123.208L131.262 123.649L127.472 129.347L132.551 127.293C132.551 127.293 136.365 125.285 137.822 123.093C139.291 120.883 139.481 119.197 139.651 116.548C139.831 113.722 139.111 112.154 138.503 109.389C137.83 106.332 136.286 101.686 136.286 101.686Z" stroke="white"/>
<path d="M125.936 170.947C120.342 170.135 112.206 166.367 112.206 166.367L108.279 150.761C108.279 150.761 113.834 158.169 118.587 161.529C121.916 163.883 123.971 165.727 128.003 166.322C129.727 166.576 132.343 166.804 135.09 166.023C137.529 165.33 138.667 164.441 140.817 163.097C142.459 162.071 143.321 161.127 144.694 159.763C146.703 157.768 147.56 156.261 149.061 153.861C150.577 151.436 150.935 149.797 152.502 147.405C154.169 144.861 156.745 141.359 156.745 141.359L153.37 150.855L149.767 159.098C149.767 159.098 147.804 162.951 145.299 165.288C142.551 167.852 140.363 169.499 136.741 170.499C132.812 171.584 131.103 171.697 125.936 170.947Z" stroke="white" stroke-width="0.5"/>
<path d="M163.958 142.95C161.847 142.055 158.224 141.685 158.224 141.685L159.956 145.442L160.695 145.256L161.522 148.541L162.712 147.368C162.712 147.368 162.457 149.42 162.758 150.676C163.074 151.994 164.324 153.775 164.324 153.775L165.549 149.274L167.674 154.592L168.595 152.7L173.146 160.027C173.146 160.027 173.96 156.153 173.486 153.74C173.099 151.771 172.633 150.659 171.506 148.998C170.575 147.625 169.833 146.995 168.578 145.93L168.543 145.901C166.92 144.523 165.918 143.781 163.958 142.95Z" stroke="white" stroke-width="0.5"/>
<path d="M160.128 150.289L156.79 143.967L156.779 149.822L154.542 151.695L156.556 152.062C156.556 152.062 155.596 153.183 155.121 153.995C154.264 155.46 153.71 158.106 153.71 158.106L158.308 155.9L156.16 161.594L159.528 160.747L157.241 169.707C157.241 169.707 159.38 168.633 160.463 167.586C161.243 166.832 161.691 166.371 162.185 165.406C162.9 164.009 162.839 163.026 162.939 161.46C163.078 159.294 162.84 158.046 162.335 155.935C161.783 153.633 160.128 150.289 160.128 150.289Z" stroke="white" stroke-width="0.5"/>
<path d="M166.887 137.584L161.591 140.139L165.762 140.749L167.306 142.719L167.838 141.362C168.962 141.894 171.324 143 171.785 143.164C172.245 143.327 171.207 141.562 170.631 140.659L174.207 141.681L173.628 139.381L178.313 140.647C178.313 140.647 178.233 138.735 177.59 137.772C176.95 136.815 176.292 136.443 175.225 136.009C173.701 135.39 172.633 135.646 171.014 135.934C169.305 136.237 166.887 137.584 166.887 137.584Z" stroke="white" stroke-width="0.5"/>
<path d="M162.652 135.68L160.108 137.717L161.477 133.093L159.871 130.877L162.195 132.126L162.5 130.216L162.269 126.867L164.513 130.233L164.569 126.289L165.101 125.281L166.645 127.251L167.197 125.627L168.094 121.209C168.094 121.209 168.743 123.081 168.879 124.33C169.021 125.631 169.082 126.41 168.761 127.679C168.468 128.841 167.451 130.454 167.451 130.454L165.257 133.19L162.652 135.68Z" stroke="white" stroke-width="0.5"/>
<path d="M157.327 132.915L157.296 139.036L156.262 134.93L154.494 134.152L155.192 133.452L154.205 133.002L151.325 130.233L153.275 129.306L150.312 126.208L152.694 125.609L150.43 122.86L148.596 119.391L151.164 119.531C151.164 119.531 152.88 120.407 153.776 121.231C154.802 122.176 155.264 122.861 155.896 124.104C156.751 125.785 156.799 126.921 157.074 128.786C157.311 130.384 157.327 132.915 157.327 132.915Z" stroke="white" stroke-width="0.5"/>
<path d="M149.487 137.159L154.504 140.438L149.512 140.384L146.947 142.339L147.377 140.921L141.094 143.026L144.045 138.79L138.542 140.175L139.668 137.359L134.905 139.606L135.169 137.181L131.103 138.728L133.092 135.87C133.092 135.87 134.873 133.788 136.436 133.194C138.012 132.594 139.084 132.714 140.75 132.982C142.526 133.267 143.397 133.934 145.025 134.701C146.825 135.548 149.487 137.159 149.487 137.159Z" stroke="white" stroke-width="0.5"/>
<circle cx="101.535" cy="151.442" r="29.2558" fill="#095A88"/>
<path d="M82.6047 163.488L90.9028 149.155L95.0519 153.87L103.727 135.953L114.477 163.488" stroke="white"/>
<path d="M98.4466 163.488L104.142 153.671L106.99 156.9L112.945 144.629L120.324 163.488" stroke="white"/>
<circle cx="93.166" cy="141.611" r="2.51752" fill="#A99800" stroke="#A99800"/>
</svg>
